<?xml version="1.0" encoding="UTF-8"?>
<svg id="_레이어_1" data-name="레이어_1" xmlns="http://www.w3.org/2000/svg" version="1.1" viewBox="0 0 300 85.5">
  <!-- Generator: Adobe Illustrator 29.4.0, SVG Export Plug-In . SVG Version: 2.1.0 Build 152)  -->
  <defs>
    <style>
      .st0 {
        fill: none;
      }

      .st1 {
        fill: #f5f6f8;
      }

      .st2 {
        fill: #f49b28;
      }

      .st3 {
        fill: #1f2a44;
      }
    </style>
  </defs>
  <g>
    <path class="st2" d="M65.1,17c-4.5.3-8.1,3.9-8.4,8.4-.1,1.5.2,2.9.7,4.2.1.3,0,.6-.1.8l-11.5,14.3c-.2.3-.5.5-.8.7l-2.6,1.3c-.2.1-.5.1-.7,0-.9-.5-2-.7-3.2-.6-2.5.3-4.5,2.3-4.8,4.9-.3,3.3,2.2,6.1,5.5,6.1s5.2-2.1,5.5-4.9c0-.3.2-.6.5-.7l5.8-2.1c.4-.2.8-.4,1.1-.7l11.3-13.4c.2-.2.5-.3.8-.3,1,.2,2.1.2,3.1,0,4.1-.7,7.2-4.1,7.5-8.2.4-5.5-4.1-10.1-9.6-9.7Z"/>
    <path class="st2" d="M39.2,57.5c-1.7,0-3.3-.7-4.5-2-1.2-1.3-1.7-2.9-1.5-4.7.3-2.7,2.5-5,5.2-5.3,1.2-.1,2.4,0,3.5.6,0,0,.2,0,.3,0l2.6-1.3c.3-.1.5-.3.7-.5l11.5-14.3c0,0,0-.2,0-.3-.6-1.4-.9-2.9-.8-4.5.3-4.7,4.1-8.5,8.8-8.8h0c2.8-.2,5.5.8,7.4,2.8,2,2,3,4.7,2.7,7.5-.3,4.3-3.7,7.9-7.9,8.7-1.1.2-2.2.2-3.3,0-.1,0-.2,0-.3.1l-11.3,13.4c-.3.4-.8.7-1.3.9l-5.8,2.1c-.1,0-.2.1-.2.3-.3,3-2.9,5.3-6,5.3ZM39.2,46.5c-.2,0-.4,0-.6,0-2.3.3-4.1,2.1-4.3,4.4-.2,1.4.3,2.8,1.3,3.9.9,1,2.3,1.7,3.7,1.7,2.6,0,4.7-1.9,5-4.4,0-.5.4-.9.9-1.1l5.8-2.1c.3-.1.6-.3.8-.6l11.3-13.4c.3-.4.8-.5,1.2-.4,1,.2,2,.2,3,0,3.8-.6,6.8-3.9,7.1-7.7.2-2.5-.7-4.9-2.5-6.7s-4.2-2.7-6.7-2.5h0c-4.2.3-7.6,3.7-7.9,7.9,0,1.4.1,2.7.7,4,.2.4.1,1-.2,1.3l-11.5,14.3c-.3.3-.6.6-1,.8l-2.6,1.3c-.4.2-.8.2-1.2,0-.7-.4-1.5-.5-2.3-.5Z"/>
  </g>
  <path class="st0" d="M63.1,48.9c-1.3-2.3-4.3-2.9-6.5-1.3-1.8,1.3-2.3,3.8-1.2,5.7l5.1,9.1c.7,1.3-.2,2.9-1.7,2.9h-12.8c-2.2,0-4,1.8-4,4s1.8,4,4,4h21.4c4.4,0,7.1-4.8,4.9-8.6l-9.2-15.7Z"/>
  <path class="st3" d="M69,6.9H23.7c-7.6,0-13.8,6.2-13.8,13.8v40.3l25.2-43c2.2-3.7,7.6-3.7,9.8,0l7.1,12.2c1.1,1.9.7,4.3-1,5.6-2.1,1.6-5,1-6.3-1.3l-2.4-4.2c-1-1.9-3.7-1.9-4.8,0l-16.8,29.7-4,6.4c-3.3,5.3.4,12.2,6.6,12.2,0,0,0,0,.1,0h45.3c7.6,0,13.8-6.2,13.8-13.8V20.7c0-7.6-6.2-13.8-13.8-13.8ZM67.5,73.2h-21.4c-2.2,0-4-1.8-4-4s1.8-4,4-4h12.8c1.5,0,2.4-1.6,1.7-2.9l-5.1-9.1c-1.1-1.9-.6-4.4,1.2-5.7,2.1-1.6,5.1-1,6.5,1.3l9.2,15.7c2.2,3.8-.5,8.6-4.9,8.6ZM74.8,26.7c-.3,4.1-3.4,7.5-7.5,8.2-1.1.2-2.1.2-3.1,0-.3,0-.6,0-.8.3l-11.3,13.4c-.3.3-.6.6-1.1.7l-5.8,2.1c-.3.1-.5.4-.5.7-.3,2.8-2.6,4.9-5.5,4.9s-5.8-2.8-5.5-6.1c.3-2.5,2.3-4.6,4.8-4.9,1.1-.1,2.2,0,3.2.6.2.1.5.1.7,0l2.6-1.3c.3-.2.6-.4.8-.7l11.5-14.3c.2-.2.2-.6.1-.8-.6-1.3-.8-2.7-.7-4.2.3-4.5,3.9-8.1,8.4-8.4,5.5-.4,10.1,4.2,9.6,9.7Z"/>
  <path class="st3" d="M127.3,63.7h9.1l-16.7-42.6h-9.6l-16.2,42.6h8.8l3.6-9.5h17.6l3.5,9.5ZM109.1,46.7l6.1-16.4,6,16.4h-12.1Z"/>
  <polygon class="st3" points="166.8 33.3 156.8 33.3 150.7 41.7 144.7 33.3 134.7 33.3 145.9 48.4 134.9 63.7 144.1 63.7 150.7 54.8 157.3 63.7 166.5 63.7 155.5 48.4 166.8 33.3"/>
  <path class="st3" d="M181.2,32.6c-16.1,0-14.7,18.4-14.7,18.4,0,0,1.2,13.5,14.9,13.5s13.2-5.3,13.2-5.3l-4.6-4.4s-2.6,3.2-8.6,3.2-7.3-6.9-7.3-6.9h22.2s1-18.4-15.1-18.4ZM174,45.6s1.1-6.4,7.4-6.4,7.5,6.4,7.5,6.4h-14.9Z"/>
  <rect class="st3" x="200.4" y="21.1" width="8.1" height="42.6"/>
  <rect class="st3" x="214.3" y="33.3" width="8.1" height="30.4"/>
  <path class="st3" d="M253.8,41.2c-.6-1.9-3.5-7.9-10.7-7.9s-6.9,2-8.7,4v-4h-8.1v30.4h8.1v-18.4c0-.3.2-.5.3-.8.5-.7,2.5-3.6,5.3-3.6s5,2.8,5.6,3.7.2.4.2.7c0,4.6.1,18.4.1,18.4h7.9v-21.4c0-.3,0-.7-.2-1Z"/>
  <polygon class="st3" points="287 63.7 274.1 46.8 286.3 33.3 276.3 33.3 266 45.2 266 21.1 257.9 21.1 257.9 63.7 266 63.7 266 49.7 277.1 63.7 287 63.7"/>
  <circle class="st2" cx="218.4" cy="25.6" r="5.2"/>
</svg>